<mxfile host="app.diagrams.net" modified="2021-09-11T08:17:08.670Z" agent="5.0 (Windows NT 10.0; Win64; x64) AppleWebKit/537.36 (KHTML, like Gecko) Chrome/93.0.4577.63 Safari/537.36" etag="Fsz8Fd8LVC1oAUTskeSm" version="15.1.2" type="github">
  <diagram id="C5RBs43oDa-KdzZeNtuy" name="Page-1">
    <mxGraphModel dx="868" dy="520" grid="1" gridSize="10" guides="1" tooltips="1" connect="1" arrows="1" fold="1" page="1" pageScale="1" pageWidth="827" pageHeight="1169" math="0" shadow="0">
      <root>
        <mxCell id="WIyWlLk6GJQsqaUBKTNV-0" />
        <mxCell id="WIyWlLk6GJQsqaUBKTNV-1" parent="WIyWlLk6GJQsqaUBKTNV-0" />
        <mxCell id="WIyWlLk6GJQsqaUBKTNV-2" value="" style="rounded=0;html=1;jettySize=auto;orthogonalLoop=1;fontSize=11;endArrow=block;endFill=0;endSize=8;strokeWidth=1;shadow=0;labelBackgroundColor=none;edgeStyle=orthogonalEdgeStyle;" parent="WIyWlLk6GJQsqaUBKTNV-1" source="WIyWlLk6GJQsqaUBKTNV-3" target="WIyWlLk6GJQsqaUBKTNV-6" edge="1">
          <mxGeometry relative="1" as="geometry" />
        </mxCell>
        <mxCell id="WIyWlLk6GJQsqaUBKTNV-3" value="Lamp doesn&#39;t work" style="rounded=1;whiteSpace=wrap;html=1;fontSize=12;glass=0;strokeWidth=1;shadow=0;" parent="WIyWlLk6GJQsqaUBKTNV-1" vertex="1">
          <mxGeometry x="160" y="80" width="120" height="40" as="geometry" />
        </mxCell>
        <mxCell id="WIyWlLk6GJQsqaUBKTNV-4" value="Yes" style="rounded=0;html=1;jettySize=auto;orthogonalLoop=1;fontSize=11;endArrow=block;endFill=0;endSize=8;strokeWidth=1;shadow=0;labelBackgroundColor=none;edgeStyle=orthogonalEdgeStyle;" parent="WIyWlLk6GJQsqaUBKTNV-1" source="WIyWlLk6GJQsqaUBKTNV-6" target="WIyWlLk6GJQsqaUBKTNV-10" edge="1">
          <mxGeometry y="20" relative="1" as="geometry">
            <mxPoint as="offset" />
          </mxGeometry>
        </mxCell>
        <mxCell id="WIyWlLk6GJQsqaUBKTNV-5" value="No" style="edgeStyle=orthogonalEdgeStyle;rounded=0;html=1;jettySize=auto;orthogonalLoop=1;fontSize=11;endArrow=block;endFill=0;endSize=8;strokeWidth=1;shadow=0;labelBackgroundColor=none;" parent="WIyWlLk6GJQsqaUBKTNV-1" source="WIyWlLk6GJQsqaUBKTNV-6" target="WIyWlLk6GJQsqaUBKTNV-7" edge="1">
          <mxGeometry y="10" relative="1" as="geometry">
            <mxPoint as="offset" />
          </mxGeometry>
        </mxCell>
        <mxCell id="WIyWlLk6GJQsqaUBKTNV-6" value="Lamp&lt;br&gt;plugged in?" style="rhombus;whiteSpace=wrap;html=1;shadow=0;fontFamily=Helvetica;fontSize=12;align=center;strokeWidth=1;spacing=6;spacingTop=-4;" parent="WIyWlLk6GJQsqaUBKTNV-1" vertex="1">
          <mxGeometry x="170" y="170" width="100" height="80" as="geometry" />
        </mxCell>
        <mxCell id="WIyWlLk6GJQsqaUBKTNV-7" value="Plug in lamp" style="rounded=1;whiteSpace=wrap;html=1;fontSize=12;glass=0;strokeWidth=1;shadow=0;" parent="WIyWlLk6GJQsqaUBKTNV-1" vertex="1">
          <mxGeometry x="320" y="190" width="120" height="40" as="geometry" />
        </mxCell>
        <mxCell id="WIyWlLk6GJQsqaUBKTNV-8" value="No" style="rounded=0;html=1;jettySize=auto;orthogonalLoop=1;fontSize=11;endArrow=block;endFill=0;endSize=8;strokeWidth=1;shadow=0;labelBackgroundColor=none;edgeStyle=orthogonalEdgeStyle;" parent="WIyWlLk6GJQsqaUBKTNV-1" source="WIyWlLk6GJQsqaUBKTNV-10" target="WIyWlLk6GJQsqaUBKTNV-11" edge="1">
          <mxGeometry x="0.3333" y="20" relative="1" as="geometry">
            <mxPoint as="offset" />
          </mxGeometry>
        </mxCell>
        <mxCell id="WIyWlLk6GJQsqaUBKTNV-9" value="Yes" style="edgeStyle=orthogonalEdgeStyle;rounded=0;html=1;jettySize=auto;orthogonalLoop=1;fontSize=11;endArrow=block;endFill=0;endSize=8;strokeWidth=1;shadow=0;labelBackgroundColor=none;" parent="WIyWlLk6GJQsqaUBKTNV-1" source="WIyWlLk6GJQsqaUBKTNV-10" target="WIyWlLk6GJQsqaUBKTNV-12" edge="1">
          <mxGeometry y="10" relative="1" as="geometry">
            <mxPoint as="offset" />
          </mxGeometry>
        </mxCell>
        <mxCell id="WIyWlLk6GJQsqaUBKTNV-10" value="Bulb&lt;br&gt;burned out?" style="rhombus;whiteSpace=wrap;html=1;shadow=0;fontFamily=Helvetica;fontSize=12;align=center;strokeWidth=1;spacing=6;spacingTop=-4;" parent="WIyWlLk6GJQsqaUBKTNV-1" vertex="1">
          <mxGeometry x="170" y="290" width="100" height="80" as="geometry" />
        </mxCell>
        <mxCell id="WIyWlLk6GJQsqaUBKTNV-11" value="Repair Lamp" style="rounded=1;whiteSpace=wrap;html=1;fontSize=12;glass=0;strokeWidth=1;shadow=0;" parent="WIyWlLk6GJQsqaUBKTNV-1" vertex="1">
          <mxGeometry x="160" y="430" width="120" height="40" as="geometry" />
        </mxCell>
        <mxCell id="WIyWlLk6GJQsqaUBKTNV-12" value="Replace Bulb" style="rounded=1;whiteSpace=wrap;html=1;fontSize=12;glass=0;strokeWidth=1;shadow=0;" parent="WIyWlLk6GJQsqaUBKTNV-1" vertex="1">
          <mxGeometry x="320" y="310" width="120" height="40" as="geometry" />
        </mxCell>
        <mxCell id="ZL2CtRxX4lPX4R-uLu4m-0" value="" style="shape=image;verticalLabelPosition=bottom;labelBackgroundColor=#ffffff;verticalAlign=top;aspect=fixed;imageAspect=0;image=data:image/png,iVBORw0KGgoAAAANSUhEUgAAARIAAAGlCAYAAAA2+HnuAAAgAElEQVR4Aey9CVQc15X/n3P+/9/MnDmZGS+xLYtN+wLarF2yZUm2vFuWLMnxEu9LYncSbBMCdtpxd9yWKwFZMAgCGHVojAiSOxNmkKcZixkYpodfm6AJPYG/0THKdCQZiCAdLAiZeIm//3Nf1euuaqqBXoDu5umcOkW9qnr13n33fuq++0p9vzQ8MgqxCRkIHYhtHUCU/33yySfYs2cPUlJSorJ9SShQbCuQGB8xPqQD0f6Xm5sbFYBwEAmQCI9MeKRxoAPRBMnbb78dVYgQTARI4kCJhFcivJJogeS3v/0tFi1aFBJIkpOTfdfT3+pj4ZEIgAhPJI50IFogCXVKQ9DYtm0bDhw4gP379yMpKYltHCB8LzySOFIm4ZnMXs8kGiD5zW9+g7S0NJ93wSEQbE8QeeSRR9De3o4///nPoADtyy+/jBUrVoypQ4BEgER4JnGgA9EAyQsvvDAGAONBhLyQM2fO4PPPP2cgIZj86U9/Qnl5ua+e1NRU0CZAEgdKJDyR2euJ8LGPBki2b9/uA0AwgPBygkhbWxsDyM9+9jMcPHgQb7zxBgPJnz//M15//XUsXryY1UeeiwCJAInwSOJAByIFyYcffjhpiDz66KPME/niiy9QXFyMDRs2+O595pln8NFHH+EPI3/AyZMnmTdCcRMBkjhQIv5WEvvZ65lEChICAvc2xtuT10KeyGeffYaf//zn2LhxI4MFTV/I86D9U089hc8+/Qyf/u+fcNDyOlYsTxcgEcY5e40znsY+UpA8+eST44KEIPHQQw+ht7eXQeTo0aPIyMjwwYMAQgCi62jbf+8+fDw0hNGRP+Dcb84JkMSTMom2zl7oRQqS3bt3BwUJQWL58uX44IMPWGC1rq4OmzdvZtcnpaQgKS0VSWkpSElNQ3LyAqQmpWLxgoU4sG8//vePf8Snn3wiQCKMc/YaZzyNfaQg4WDQm9bs27cPn376Kdvee+89zJs3z+99pCTh2vkLcOXilZizMB0LkpOQmpyCNGWbl5qG+alpAiTxpEyirbMXepGCZOHChUE9EgIJfSPicDh8MRE2jUlJwVWpi7H08R9i5Y/+C+sONuPLSzcy72ReSjJSU9IwJ2UR5qQtESARxjl7jTOexj5SkKSnpwcFidZLSUJKShKSU5KRnJKE1c/bsKpsEBlvXcKKox9jbel5pK3dBgLJVek7kZb1z5j70n8KkMSTMom2zl7oRQqSyX9DogVJxgu1yHjrY6yoIJBcworSAaSuuwlzl21CyvM/R9LL7bja+EsBEmGcs9c442nsIwUJfWCm9Tz8v0NCnkfKvDTcvncfbtt7AGu3bEZyWgqSU5OR8WKtDJFAkKRvxrysf8Vc4y8wx3hagCSelEm0dfZCL1KQPPfcc0FBQhBZsXkrPhgcxa9+9ydIZT9B6pLFSElLxooXj2PF0WFlU3kky7dg8YvvYa6xHde+IkAivuoUH+TFhQ5ECpLxPki7fe+9+GDwD+jw/hmnf/8FfjX0GXIsP/SBJOPoMDKstPlBkrR8Mxa+eApzv/cLARLxhp+9b/h4G/tIQTLeJ/J33rsf/z34KTq8X+C/fg/819AX+O7BNxlIMl48jnTrMNJ/Mox0FUgoRrLghVOY+/L7mGNsF1ObeFMo0d7ZCb9IQUL3Bwu4Ekjcg5/B7f0Cv/QSSIDvHjzsA8mynwyDtkCQzHvhXwVIhEHOToOM9rgbss2gLdr1BtYXDZC8+uqrunESPZDkvFGgBUmlFiRJSzdh3ov/iqRwPZLeTgeK8y3IVASYaSpCcWMXLipz7bMNh2HItsKlnnu3W5mwi9tl5ZWvOYx6j/6xWoiuCnmg+IAZcvMg1bbinLr+cf7u7bBDsljY8w3ZFhhL6+DuVxtRG4qVvlgaz/sVwlMHU7YZwdrM2tjvgCXbDKO923/fiBtWoxmGAgd69do15IGzugg5uUq/WH/a5GuVZ5oaPKr6RsFkINXhrLo+5Vrqk7VT3Z9RyPI1w2A8hnbVPdp6Qul3wBj4xlepo6JN0155/AbQ1VAOo9LPTGMRip09Otdp264e+3j4m+vlVLc1GiChHzbS+5nFXXfePcYjMf/90TEgWa6a2iQt3Yx5L/4bkl5yhT61OdtYJAPEVISyhiY4XQ7UlB5Gpk+xuBJHGyRFqHK1qp5nRlZFmw9ewQaRG1SmVI6axlY47OUwkWIby+H0wcRvUBrDmwxIRkbRXk2QKkfzoGwQvc1FMGRLY4ybtXHoNKwm2ShNpXY4XLxNNhm8IYCEPcdUjkLJjKxqt8ZAeb9JydVwDAaSifstobiR5M+3LgWSwUHidZUzeGflH4eD60l+AAxVkAs2hrFeHk8gIRjRb4oELgPfcued+NXgJyxG8svffwH3x1/AXPAWUlNo1aYG6dYhLP3JCNKPfow1P/4IqWtvwrUsRvIekl524RrjL0KIkQy1oJDe3HrK0N/nM2pZiaMNEm19Z+vI6xn7JtYoHW9vaZPWM/DUMS/CUNoCL1Nk2RhMFVbmgfi8gUmCZFjxSpgxD7WheBxv5Iw9j0GmuH1AY/i+dk8aJH04VSADhMnbZEeXyijlMShHcYUFBqMVriEZcnogmVy/81DT2YfefmUbvKS0PzhI5Db4vU7Wx8EBRebx7YX4xmtkVPF042NqQyD5+OOPEfiVa8bKFfj6d15Cx+8/Z1tN3b/hjlv3gP4fTeqOfVj9agOWHv0jNpR+hEV3Po+5C1dhzvwMpN70FOa+/B+4ytiGLw0M/t6n1PR33buNvmO1wIZdND2xwNpBSuDFRa5UfD/oZfdNB0iGPXUwZpshG/2lgLYoysrbG+D2U5+YQWXbFLdfAUlDj+xdcMObLEh8XkkRiisIFHmo6dYzlB6csBCIg0x5CATKM412t99o+/vQXGqGQT21YZBUQMruyUNNj/+ZvjFQIMfhqAuSSfU7YGrjm8oEB8lw5zFkZZuRKdnQ3N2XcADhthFvHgnBhH5nRO2VJKUk49r5aVix5Uas2rQTyzNWIo1+LiCF/rdvCq5ZthFfWX0L5qy8EUnJqZiTPF/+hH7eHCSlb8LlK27GlyyHfgwCCG3099G37bog0bxhOmw+EnNBckX3KbHqDTkccYxE65EMj3Djp1iCosxKnMOQLb8FNe1Vt2WET7+K4LhAxqeqq98BiQMqBJCQV0L3MVmUtvi8M65s8n4co+PtU57pkymvk/YqkHid5TDkWtF8gTyENhaT4bCgZ6nHwF0t+bwSfZB4wNvP6tDtd8DUprtP0ZHx+3TOZZOnktR+Uwnqu4N4Yrz/Mb7XHRf1GAX8rR1/P+jDKY9GjERdh3qKk0y/M8L+b00yUpJSkZo8F/OS5iIlORWpKVchJWUu+383BBU6n5KUxv737zz6H8ApyUhKnYcvNTvbGEDGgwjruOoN7/WcVs2XW1CV7w8uqpXYJ7Bog0TxSCwNFBztQ5dv7k5z+NM4S668qr2+diiKqu+RyAHOLjb9KIezexLBVpXiy7GSYN4IKVE3aig+MgmPJKfCoZJvK6oKtCCR2x/gJahAoxmDQXlKSgHhoCAZGUV4/R4fJLLcL6G324FCmvJll+CULzYVmWEFjul0HCcSSOgHnSm9hNozCeXv1FT519Lot0xoYz+1SDAJ5on4BihYzGGwlcUF+MqFHGzUGlRvIwUgD6OeeQD8jemfP4/nPchGo/VIZKXXuvO+dnLjDtbeYDESvlLCDa+0fOJVG/6sAC9gTFuU67pqpSAxkkuy6694A2rvgurSA4Clocc//XHStLPIZ6QakKggUaiZIqk8MWpfWP0ODhJvv3Y6I7fJjDI2NY4/iAQbUw6XYOejVa72JqL198DAADZt2hQWTDhA+D6k32w92yCv2vBVkOYGGyR6y1JcQVm1GB46jTJ6+xiLUEUrJbVFyCGXT+XyB4JDPrbAUmpDWaWy1clLojJIlFUbZx3KCsgYI1y1yVW/GQMMygcF+Y2vXf7VbyMpS6Dx6irQoBKMpelT6XHUO/mqjQLVyYCExR7ycEJZOmfPUaApNctTjjFt4UFgGgef5xJKvwOmNq6AVRtLiX/cKm041SPLI9NUIq/uNR6HhXkk5XAqgV9d+ajAHC/n4xkkBCRKL/HSSy+FBRO1BxMSSGhwezvrUKj+LqPgOJyKp+Eb/AutsPq+NbHAVNGEMyoF0geJvqsug8R/jn2P0OjWrsSMo4DnXMcn9R2JxgtQGZ4WJP52MAXyGeUkQcLe/D1ori5CluY7EuW7mEmAhE2hjMfg1vRZCeQqK1FjQOID3fggGZ5sv33L/YpHEhAbYDLrd8NR4e9npqU87mMkPv1WyT7eQcK9G8oHHEryLDVE6O+QQaInTFGWOK66GMvQxjJRQEJA6enpwXe/+10sWLAgZA9FgET1dhFGFJoRCXnF33ck3AMZb0+/JG80GnW/gg30RPixAIkAie5yv4BEbEF1PMOfynOU99dkMmHv3r3YuXMn1q5dywBDn9rT3zt27GDnBEgESARI4kAHphIW0ahbgCQOlEh4B7HlHczEeETD2KeyDgESARLhkcSBDkwlBKJRtwBJHCjRTLwBxTNjywuKhrFPZR0CJAIkwiOJAx2YSghEo24BkjhQIuEdxJZ3MBPjEQ1jn8o6BEgESIRHEgc6MJUQiEbdAiRxoEQz8QYUz4wtLygaxj6VdQiQCJAIjyQOdGAqIRCNugVI4kCJhHcQW97BTIxHNIx9KusQIBEgER5JHOjAVEIgGnULkMSBEs3EG1A8M7a8oGgY+1TWIUAiQCI8kjjQgamEQDTqnhaQdH5wFud7fysUNg4UVngiseWJ8PGIhrFPZR1RAcm777Wg8wP9LGrv/ON7qHj7H5BXbAt6DReW2MemEotxmflxmUoIRKPuiEFCnka26U3U/0uLrsdxpOKnrPwXHV1Br5lyRe3vgtPZEpCqU6scvd2taHZO/iccx7bZi7MdTWju5KkatPWPvV6cFzKZvA5Ew9inso6IQUKeCIHkP97/5RiQEDyMbxxB8dGfIr/EBsubb03LFMfbYUNWtuRPVMXSYfh/tV5PgbW/1D75AfbX5UG9xJN2hXM/3XMJFy904Uwcp2zwyyNcGYj79GQ4lRCIRt1hgaTn1+dAcQ/aqt95l4GkseV9XxkXBHkjBBn1FmwKxO+Jyt5zEpKpBA7+S+txAxL5x5T5D05HRRYiLjPmBRePco2GsU9lHWGBRA0Gvb8pLkKDNWMgCTQeAZKEMKZ4BEC02jyVEIhG3WGBhOIhfKOpy2uHyn3HVE4eCwnw7RMnNd4IQWdSHsmQB87aEphMEkwFNjg6e9DlqkNZYxfLrNdeZ8OJDlUsor8NJ5R8KmzgeppQVmlHO58i6IGE0iXUlsNiyoNUcRyFkjpVwzjuNbXNTvdJyJEob0sbzrFUG3xq04PeTgeK8yXkmIpgdVE2QKW+IQ/cjXYUF+Qhh+7PL0cNP8/6UMJyGhsLKLfPSbhVKTx8dfC6xN4v11kgi2gY+1TWERZI1EpNcKBVGXUZ/3vgd0MMHAQPvvFzwfce1FMK0PxjcPV40NVYzpJR55BxsaRZ3GDlFJusnoB8tXKuYVVMJBAknpOwsATXVtQ7m1BfWy7nqFXlqdFtH09wZVKSf9npPv4cuV1ZRgmZpiKUNdShKp+SeakyAlKWP1MJiu2UkrMJNUdU58eARAXCWWAouvIW/fbZ1VRCIBp1RwQS8jwIJOSFRE0RGBTUmeS8aKZUk5WnlWdEDhK9wKqmbGjAnw6zvw+9g5fYs89QXmCjFU6eVZApupJuc0QBSYEDZ7kBKMnFg8c8WlGcbYb/vIiRRE2P+BgkyD4axj6VdUQEElqpIZDQ6kygAlCchFZqAssnPL5A3oIFVl+OWMVAq91RAokbVqMZxjrtdy8akDAPRpVVr6KNTalOUTLvitYgfdIB3IgOGPq74aRUp5Lky7YnQDLOVDJBQDCh3k/Qz6mEQDTqjggk5IkQSPS+WqWlXv4NSWhC9KK9WoIh9zAKK20oply/xnI4ebxDefNrUmyGNLWRjVtzf2Cibl2PRAaFgUFFT/EnBsnFdhvLg5xTcJzFfXr7m1AoPJIgYNaT8ewti4axT2UdIYOEvmLlG8GCQMKP1Xsqp/O8TO87k2CA8XYeh9FYjhOuVjg7utCrCTrqGKynjgUpfW/2wJiI5rgbNSYzsqr5VElWTmfFxMHW9srxrtFpl8YjOS/HfjQgCvRYAo9nr+EE043ZWj6VEIhG3SGBhAKmBIhwtlC8EzkJtgXGAiuqGprQ3n0eXp/rpxhkfh26+vtwrrMOh1ime1WsQQOOUQQGX1msI/swajo96O33wG0vQiYlwp4o2Np5jAV+LXY3zg164R3sgct+DKfY9yqTBElpE0uA7u13o54FW1XtVsBjrHWjt39A1WcBlNkKEN7vaBj7VNYREkioU3z1heIiBBRaseFlfE/xETonf6Qmr9joTX+4kDT7wS7U5FtgrHTAYaepTZ4cS8gtQr3ygRmfIrAEzrlFqOlsQ5VJZZATgGR4pAenFCOmOjIL7HA3WycGycgozrls8goPgYfuNZVPEiSj0LY7D4WNrTghqdo94oXbfliGWrY64CxAotER30tl9shlKiEQjbpDBgkfUO6dECx4Gd9zkNDyLy+b7N5dbYHhSBMuapSlGycsAZ+fUxxj0Bty/Zp2sDrkFRlNuebZesp6CRf7+3BRM+XSu06vzIuLE3kb0ejbhH3Qa5soC00Ppk9e0TD2qawjbJAQQMjrIKAECp+mMcaDRWPKA6/TO+6qlYOrjm6advSx7YzLBmO2hLKOCMEhjCusMdEbJ1E2fRAhWcf6v7BBQt+Q0KqNntdBgdVQgqtapeyDu9EqfzmaS1MH/nWr6ktWAQQBhFmmAwkLEq3xTy+dxbOFvGebDgiQzLI3x2xTcNHf6YG6AIkAiZiGCB2IWAcESIQSRaxE4q0/PW/9WJazAIkAiQCJ0IGIdUCARChRxEoUy29K0bbp8ZYESARIBEiEDkSsAwIkQokiViLx1p+et34sy1mARIBEgEToQMQ6IEAilChiJYrlN6Vo2/R4SwIkAiQCJEIHItYBARKhRBErkXjrT89bP5blLEAiQCJAInQgYh0QIBFKFLESxfKbUrRterwlARIBEgESoQMR64AAiVCiiJVIvPWn560fy3IWIBEgESAROhCxDgiQjIziVx98iHMf/TZiYcbyG0O0TXgNU6kDswIkJ/+lhcFCT5Dv/NMp9kvz+cW2oNfo3SfKhGEKHfDrQMKDhDwN+hFogonewB+pqGXllL4i2DV690W1rL8LTmcL3L5sff4B4s/p7W5Fs9PNcs7wMrEfKychk5mRScKDhKYtBJL/cP1yDEgIHq9IxSg+WotDJTa8fvitaZnieDtsyMqWUNOtDHpgnhudObsm96/O+dgwoEu4eKELZ8YBYmy0c2aMLZH7npAg+fDX53xJsart78rJsP7d5SvjA0reCEFGvRF4+Pkp23tOQjKVwKEk1ArMtKf33PgAiUjpqTd2s6EsIUGiBoPe3xQXocGdMZAEehQJ45EIkMwGaOj1MSFBQrEOvr3yxhFY3iz3HVM5eSwkjLffOanxRgg6k/JIhjxw1pbA5Mtp04MuVx3KGrswPNKH9jobTnSo8tz0t+FEpQ2nehSXuqcJZZV2tPMpgB5I+t1w1JbDYsqDVHEchdIkcv8SoOi+iiLkmCRYSu1wXlAy9Q254agsh9WpatcI9cOGKpdH8cIu4ZzrOCRJQo5UgrJGdUxG7hf1obfTgeJ8CTmmIlhd5+V7WR9LWLJ0Y4ENZZUn4Q4r05+YdugZaqyXJSRI1EInOFD+X3UZ//vi4O8ZOAgefOPngu89qM83w5B/DK4eD7oay1ni7hwynro29I7oJOv21MGUrcqhGwiOwGPPSVgob69kRb2zCfW15XI+34mSiA+2odhoRtYRO5pdrXBU5sGQfVjJSexFc6kZhtIWf/Jv1i4LrJ2y8crJ0fNQ1tgKp9POkp9nVZ5Wrpf7ZbTkIdNUhLKGOlTlSzBk56GGADkGJCpQBnpg4lhXH4PrXOzDNaFBQp4HgSSqqzHM+NQJtBUDrTytKEfkINGLh2jKKPeuki6U7Qdlr+OMPQ8G03F0+QxVbktWtZu1zesqhyG7HM2Kp8DAYTwGN10/1ILCbDMOOQf8Ss4AV4RTzHNS6ipw4Cyvv98BSQ3IETG1iWcYRNL2hAYJrdQQSGh1JlBIFCehlZrA8gmPL5C3YIG1g78ltMY6HLFH4obVaIaxTpuzWAMSZuBmGLKVraINwyPnZU8p18KmNTS1oS0rl7ynkzingkWhk3IUy+3OsXfLMuiwsfooBSm/N8dkYWVlrK/y9aYGPg2i/geCI/CYy0jsJ9QrDuc43Sc0SMgTIZDofbVKcRP+DUlog+xFe7UEQ+5hFFbaUFwgJxV38nhHxCCRjVFrsKPQgETXI5EN3VBwHE5Xq3br6FGmJ144+fSm3wELn5aQ8jI4SSimaU3A/V0qj0TbrkBwBB4LgISmW/Err4QDCQuyvteCk++1sO9C2NRGOaYyvlE5fTfCj/W+MwmmBN7O4zAay3GCDK6jC72aoKLOm9tTx4KQxe2KogTGRDTH3agxmZFVzadK8j3OiomDre2V5H04xv9ojT2rHPUNRTBY7DjD34BjPK1Apdbpl/BIQvdoubwTbJ9QIKGAKQEinC0U70QOSlpgLLCiqqEJ7d3n/QFMPsXIr0NXfx/OddaxoCVNQyYHklGwWEf2YdR0etDb74HbXoRMmsZMFGztPIasbAukOjeDm3fQgy6nDaZqmvpwMJxmUydqj9a7OI9TBWYYLFY4PTT18eJiTxtqjpQowdrJg8RY60Zv/4BKJvzZYu8fh8SSRUKBhAaJr75QXISAQis2vIzvKT5C5xr/3eU7pzf90R30wS7U5FtgrHTAYaepTZ4ch8gtUgxuFBfbbcjh8YvcItR0tqHKNHmQDI/04NQRWhGRYyCZBXa4m60Tg2RkFGeby5FDcRF+r6kc9Z3qJd9RtFdT7IOv5qgUevA0qiQ5LiLfb4GpuhXnmMc1GZB44bYflqGXrQ5Iq57hA5oo09WvOJVPwoGEDw73TggWvIzvOUho+ZeXTXbvJiM80oSLmgHvxglLwBue4hiD9GaPwGBYHcp3ICHVcwkX+/twUTPlCqEdLAYTgUcRjb6H1N8Q+ibqjUwng8gvYUFCACGvg4ASaMw0jaEP1QLLJ3PcVSsHVx3dNO3oY9sZlw3GbAllHRGCI8ggTaZd4hoBk5nUgYQFCX1DQoFXPa+DAquhBFe1A9QHd6MVFlomzTWDlktNBTY4AqYP2nuEkgt5JLYOJCxIhOImtuKK8Y2t8RUgEdOJsKZ4wpBjy5BnejwESARIBEiEDkSsAwIkQokiVqKZfhuK58+8dyRAIkAiQCJ0IGIdECARShSxEgmPYOY9gpkeAwESARIBEqEDEeuAAIlQooiVaKbfhuL5M+8RCZAIkAiQCB2IWAcESIQSRaxEwiOYeY9gpsdAgESARIBE6EDEOiBAIpQoYiWa6beheP7Me0QCJAIkAiRCByLWAQESoUQRK5HwCGbeI5jpMRAgESARIBE6ELEOCJAIJYpYiWb6bSieP/MekQCJAIkAidCBiHVAgET5wehJ//izULqIlU54EDPvQUR7DGYFSOgnF/V+u5WEST8ETb80n19sC3pNtIUu6ks8Q5rtY5rwICFPg34EmmCiN9g8nw2lrwh2jd5901bW3wVnY5s/kVWAR+T1nB73/LS1M6Bd4rmzC5YJDxKelkLvx54JHq9IxSg+WsvyAFPmvZib4rDMeFa4ghiqnKwr+PmpNWhKotWNs+GmvQjSp6lt8+wy8OmSZUKChH5BvvODHrZV29/1JcPiZVy45I2Qt6Legk2B+D3Tvo9lkHjqYNJLtCUAoev9TrvuTOM4JCRI1GDQ+5viIjSoAiQRvp0FSGYdMILBMCFBQrEOvlEiLMub5b5jKiePhQTy9jsnNd4IQWcij+RiRx2KKxyqmMV5uOw2nOhQpcXsdqCs8iTc3OXvd8NRUYQckwRLqR3OCwHZ88Y7H+iReFpQVXkM9Z0DrA/qqc051/GAto1iuL8NNZXH4bwwPjR6Ox0ozpeQYypCob0VZ3rccNjHua+nCWWlh1muYUupDWW1LTjL34DUn8oSmCj3T741IOdPH9rrbDjVcwnUXknSu2b8tgZTZlE+c3JLSJCoFYrgQKsy6jL+NyXPInCoN34u6L7HzrLq1XQrg8beymYYSlt8SbNZbl1+PNiGYqMZWUfsaHa1wlGZp827O9F5NUiUa3Mq23wpQ9UgGWZts8Da6Vcodt54DO3cyHX23g4bsrIlFDZ24VxPG6ryzTDkHkZhJRm8vy6NTAJBUtkkw1VpY6Zkg4P6W1uErGwzLA0eZQzkHMJGSx4yTUWoanSgqoDyHItMhRr56oxTLJ9PaJCQ50Egie5qTDdqTP48v73NRTBY8mDM5gFPN6xGM6Rm2UM5Y8+DwXQcXT7FkA0pq9rNDGui88McJBw4FX6IkGJpQDLSjRqLGbzu4RH5WTn2btmIWU5fOc0oSzc6KHtGrgozDBWtfth225FDsQ/Fi/EOqu5R5xTWmdqw/gSAq4tk4CuT22TIr/N7MCPn4SB4cfj6ZBUEYuK8f6xiRBYJDRJaqSGQ0OpMIM0pTnKoxDamPPA6veMuuwRDgQO9I140l5pR6HQzuBS3j2KYGWERTvWTEZxHPXu7W9i0hqY2tGXlmmHIP4lzE54fhQySw7Dkm5FZ2oLeAMXRgkQBi/EY3HQd81DyUMO9CgYlMwzZylbRxvrfXkntof4ohsuu430YBQMNvyfbDNZPunYMSPpwqoCgJNfrkx0Hk4fql0Fi8nko8jPP1hFw7SrgKm3hbRL7sHTVNwZTLL+EBgl5IgQSvSVdipvwb0hCFjYzjHI09zvhgf4AACAASURBVLegMFs2OIILeQLMsBlk/EZjKDgOp6tVu3X0wKsYVfDzHCRWnGg4rJ0SKYoRCJLhfgcs2fL0hnkHkurNH8QjGfY4YMk1I6fAirLKcphyzTDa/fCdvEeieBuBIGHA4UAbByQWVVunWPFDHnPRnnFBlnAgYUHW91pw8r0W0HchbGqjHFMZ36iczvNjve9MgiubPL05VFoOAzfUzmPIMllRXGCGpfG8T+hj3vYBCjnRed/UZmQArgoJBqMVrkH/23oMSEZkryCr+iSb5qjbErw/Hpw6IsFU3cRg5/Z4fe0Pfo+eRzIK1h8uE6WvXmc5DApw9T2SATQfEVObcWUdoDexdm1CgYSCpgSIcLZQvRN3tYVNEYw8/jDShmLm/hfBwaY1irETYLItkOrc6B0ahXfQgy6nDaZqxf2f6DyPkTBF6pGnSqr4wliQjMLrIsOl6Yt/ejKu4g2dRpnRjExjEQor7XC43DijxE/GvU8JNBc2e9DbPyAHm1l/zLDUdbNj74UmFFKwuaJNCUbLHklWaRPO9Muxl67GEhbsLeuYJMBi3KjGlVmCtj2hQEIDyFdgKC5CQKEVG17G9xQfoXON/+7yndOb/oyrEMxgJPhWb5R4ic9DUSnM2eZy5FBcRIkzZJrKUd/pXy4e97wGJKMYDgi66oFkeIimXJN/w59zWpFjKkFNYx2qKsthMcmQVK8O6ctC9mTkflnhVPrM6lP1N+eIA2f4UjifzuVakKnIg1aIrC6/F6f/LL8XJs7HniwSDiRcybh3QrDgZXzPQULLv7xs6veXcFG94qECjfzsic6Hojyyd1TomsQbvt8BKVtCFV/OVtolezV8JWqCZ1PsZYwHE6w/+jGSqZf/BH0YMx7i+lDGJGFBQgAhr4OAEigQmsbQh2qB5XF/PNSDdlcr6ksplqKs3ExkIP1NOETfedS2+aYavRfcqD8isZUl30dmE9Uz6fMCJHGvZzpjnbAgoW9IKPCq53VQYDW04Gq8vJ1Ow2q0IEcqxym21Dq5dnsvtKKqIA85Jgsyc2mpWv669ZxvOjK5eiZnIB7U51twqFlMZSYnr2jKfurqSliQJNIgib5MnQEI2UZHtgIkOm6aUK7oKJeQ4+yRowCJAEnixYrEmE77mAqQCKWbdqUTnkrieSoCJAIkAiRCByLWAQESoUQRK5HwMBLPwwh1TAVIBEgESIQORKwDAiRCiSJWolDfXuL6xPNgBEgESARIhA5ErAMCJEKJIlYi4WEknocR6pgKkAiQCJAIHYhYBwRIhBJFrEShvr3E9YnnwQiQCJAIkAgdiFgHBEiEEkWsRMLDSDwPI9QxFSARIBEgEToQsQ4IkAgliliJQn17iesTz4MRIBEgESAROhCxDgiQjIyi84OzON/724iFKd60ifemFWM6uTGdFSB5970WdH7QowuKd/7xPfZL83nFtqDXCGWanDIJOc1eOSU8SMjToB+Brv+XFl2QHKn4KSun9BXBrgnZQPq74HS2wK3Ob5NI7nOi9y+Rxmqa+pLwICFPhEDyH+//cgxICB7GN46g+OhPkV9ig+XNt6IzxWG5aA6jPoQfYA4ZVtOkINQub4eNJbDy5fCJav8u4eKFLpxJVOhO4zjNpA4lJEh6fn2OxT0o9lH9zrtyMqyW931lXODkjRBk1FuwKRC/Z1L7qBpaDLjLnpOQTCVwcDBGtX9yDh5fYvJZYniT0qM4kkVCgkQNBr2/KS5CAylAEiakBEjGeLeJBoZQ+5OQIKFYB99o6vLaoXLfMZWTx0KCevvESY03QtCZ2CPpQ3udDad6LuGc6zgkSUJOvhUOVQpOOfG3amoz5IG70Y5iljuGri9HDU9ROeSGo5KOtVnxupptKGt0K/lyR+HPPZMHqdKhib/0dthR1tyN4SEPnLUlkBq6gyt6TxPK6trQq1xrMkmwVDjQNah+RhGKG7twkb8R6Z5KO9r59EMHJOO1j7eLnsVy5tTWye3vb8OJyhIYs80wFthQVnkSbl8unT64G22yfE3UHjd6eXtGRuHrc78bjooi5FA/qltxTnXN8AjVYYWFnstk7vHJk8a/t9OB4nxqkwRTgRU1zh7N+VCNaTZfn5AgUQ8owYHy/6rL+N8Dvxti4CB48I2fC76XM8UZLXnINBWhqtGBqgIJhmwJviTYgYbmqYPFVIJiuwNOVxNqKItddh5qesgj8MJZaoahwKEyFNndtzQqSaTofjK2StX9RhvaFaNj+X/zj8Gabwbl0S0kqGgMSuV5UNuMeTAazTCV2lHfYGWGnGXJQxbda69DfUUeDNkWWDuV+wL7E3g8bvuU/llscLha4Wy0o1AqkuNHY0DCYTUAV4XE+mJtpHuOw2I0azL/sT5b8mDMlSBV1qG+tghZJCNfUnelDmMJapxUh43109LgkWXTY4cxW8IhexMbk/rKEuRUtgaXWzB5inIms4QGCXkeBBLyQoIaVsiKIIPEkF8HfzrL83CQEZe2yG+0QEMb84xWFGebweMCcp7dIpzSvPHL0cxAoRjikSa/hzAig0ZqlhORy4nEzciqaFXByMtyDff294Ftg4rHw9qWB2vHgE8mzgozDEYrnIMcOHL9Jm50gf3RHE/UPlleObVdvudpx0InRsKM3AJrB2/PKIa7yfD9ZazPxiJ/3GakD6cKzDBUtMnPUUChzmks36OkMmV9KEGzr8+qZ40ZL3FOO2Zj5ZHQIKGVGgIJrc4ECoLiJLRSE1g+8bF+7tqzdXkwmOzoIiXUGJoi9P5uOBtkVz0r1wyDCiTDGjAohsmhNHIaZdnkacguOLnhtGVSWeVp1n5mIKbj8rO5EXjqYKJr+CYp4GNt0yYHdxFI+Hl2fyggmbh97lrywMzIlMpR1dCGs77pC8lmLEh6m4tgyNa2cXikGzUmMzjcWJ81bR4F64cCknMNh9kzsxR5MbmRV5N9GPUXRjFMOY9pHHLzIFXY0dzdJ6Y1XHfC2Cc0SMgTIZDofbVKS738G5KJ4aEm8DggsaiN1R8judhuQ062GTkFx+Ho7EFvfxMKNSAZRXu1RZ7eDLUEnJMNLaeCpjWt2q1b5ZEEGBVNmS5yb4T2Go9Ea6SRgWTi9g2PXEJvdxNqSouQwyAqoayde0RjQcIgMQYkstz51GUikMh1FKEqUGau036QDfXAxeBuYWDOzD+p8jLVYy7+nshGEg4k9BUr3wgWBBJ+rN5TOZ3nZXrfmegLTw8kA2g+Emxqcx71NO3hLrfqjc+nNuw5nceQlV2E+oZyGIzH0O57K8j3Z1XL3odem/SMSu86VhZ1j2Ti9mnbMoBmTUxoLEiGO2yy58CXm0kWCmA107kAeKo9ErmOIjj4dNEnzyBQ4FMnHhea6HpxXuPNJxRIKGBKgAhnm7x3IoMkq7QJZ5Q3fldjCftgSz/YqoCktInFL7z9btSzYKs/RiIbWjdqLPJUJKvarRkk2dXPQ7FLXlXwDvbAZS/BISWGMbMgGcX47evBqWo7XD0D8tRhqAcOimX4pm4ySIy1bvT2K9eMuGFlwdU6nKFp0JAHzaUSi+O41AHm8UCi1JFVQCtElzA8NIBz3U2wSja46CO7djuszi6cG7wE5jG1H4PRFwAPAhsBD41eql8QCQUS6hhffaG4CAGFVmx4Gd9TfITONbKP1OQVG73pj1pQ/r9lkBhyZXeYxSByD8PKl3NJ2QJiJHxqI1+bh8LGVpyQAkEyijN2Wi3hqzlqZR5Ae+1hOS6ixDwyJRucF8gIRjHTIBkeGa99HpwqzdO23WRFM8UpmGF64bbzvuXhBPdCLrSg2KSK8dAHcT1yf4P1WeORUN0eBwrVdeTmobBBXkb2diorQTyGlG2BZFcteQtoBIWG3xb4GI7GOkfwJb1GT6aMeycEi8DrOUho+Tfw3MTHelMbv0CD308xC/7G1b+eAcFix5mgSizHPS5qgpX6dQVvx1ReP177LskxG+YB6LRhaMAfx1H13ztI8R0/QMLpl1yH9jsdXz303AnGxXetql2iTDuGsU6SsEFCACGvg4ASOOg0jTEeLBpTHnid/nG4INEKXl13b3crnM5j7FsRqVn5dkQobZjjE1zOapmLv6Mrp4QFCX1DQqs2el4HBVYnH1wNFLgH9fkWHIqiwZ9rLkKWUYKl9rTqW5HA54pjYfyxqwMJCxKhdLGrdGJsEm9sBEjEFEJMIYQORKwDAiRCiSJWIuFhJJ6HEeqYCpAIkAiQCB2IWAcESIQSRaxEob69xPWJ58EIkAiQCJAIHYhYBwRIhBJFrETCw0g8DyPUMRUgESARIBE6ELEOCJAIJYpYiUJ9e4nrE8+DESARIBEgEToQsQ4IkAgliliJhIeReB5GqGMqQCJAIkAidCBiHRAgEUoUsRKF+vYS1yeeByNAIkAiQCJ0IGIdECARShSxEgkPI/E8jFDHVIBEgESAROhAxDogQCKUKGIlCvXtJa5PPA9GgIT9YPRZ3dw3QuETT+HFmE7NmM4KkFDuGr3fbiWloh+Cpl+azyu2Bb1GKN/UKJ+Qa+LINeFBQmkm6Eegg+X/5flsKH1FsGumXOH7u+B0tsA9TjIn+oHoZqecSmFK2zOJtkzp88VUMy6nmgkPEp6WQu/HngkexjeOoPjoT1keYMq8N/n8NuG/TbwdNpZQq6ZbqSMgD46eoY5Nqxn+89X1h9MW9f3j/+3FxZ5uf4pMAYm4hMT4YyzrYUKChH5BvvODs2yrfuddVTIsuYwLhrwR8lbUW7ApEL8nKnvPSUiU8Ikng5pBkAyH0ZZJy4AlMvfnQJ70fQI4cQechASJGgx6f1NchJR6xkASaCgzCZIw2jJpIAiQxB0QJj22AXqTkCChWAffaOry2qFy3zGVk8dCAnv7xEmNN0LQmZRHMuSBs7YEJpMEU4ENjs4edLnqUNbYheGRPrTX2XCio8+vRP1tOFFpw6keZTrS04SySjvaeUxEDyT9bjhqy2Ex5UGqOI5CyQxDQK7bMYNO9da1oVfVPkuFA12Do/BeaEVVQR5yTEUoblSlppxEW/z35kGqdGhjOapnUd2FtZRrdxTDVG/pYWRlW2AptaGstgVnfcrXB3ejDZIkKe3Rxn56O+woa+7GMMmgogg5JgmW6lac890/qj1XavelL5VlQvVbYTFR/SQ/O5o9QTLtqesUf/t1NkRZJCRI1AZGcKBVGXUZ/5uSZxE41Bs/F3xPCbLMMOQfg6vHg67GcmRlm5FTYJONeEQnEx97M6ty/QaCI/DYc5Jl3cuUrKh3NqG+thym3EmAhOox5sFoNMNUakd9gxXGbDOyLHnIyj2MQnsd6isov7AF1s4g8ZkxbaljbTFWOuB0NaGGEqAbbWhnaUO9cJaaYbDY4HC1wtloR6FUhHqasgWCpLJJSUU6AFeFBAPlS26ke5QcvPknfaCRU5fmwZgrQaqsQ31tEZOx0d4tj+NgG4qNZmQdsaPZ1QpHJfXJP4ViOZSNJahxUgbDOpQV5KHMFZ2YUnC9mN31JzRIyPMgkER1NYZBQZXsesSLZjKmytMKrCIHiV5gVVPG8tX2obdf2XhuXAaBPFg7BnzgdFaYYTBa4Rzkit6G4mwzTA0e+ZpAcGiOFVAcaVJlAJTvl5rJ45L7mlNLnhivX7XXm9r02GEkkHWoruvWljGQGIv8MaSRPpwqMMNQ0caew0BhOo4u3zPldmRVu9l5JitNm1XP8t0jynTHLEz5JDRIaKWGQEKrM4FCozhJfoltTHngdWOOL5C3oDYErRJz4/IZKg1MSB6JG1ajGcY6bc5iDUiYsZthyFY2xcCGWbkVLpUyaO5j5aGA5DTK6Bm5NEXwb5lUpoDTXSuxdmRK5ahqaNOu0OiApLe5CIZsbRuHR7pRY/LDjYEkYBrH+sH6eV72CHMtmjZlkceWf5JNf3qbS0BtzDSVoNjehK7+yJKQj9EBlXzFORnICQ0S8kQIJHpLurTUy78hCU0ZvGivll3zwkobigvI1S+Hk8c7Ip7aBBi6orQaIIzrkWiNVHNfyCCR25JTQdOaVu3WzWNAl9Db3YSa0iLkkDFnSyhrVzwiHZAwSIwBiQxjPnUZHyTytYaC49r2UPs6euBV5OX1tKG+sgQmowxbS4MWzKGNufBeJpJXwoGEvmLlG8GCQMKP1Xsqp/O8TO87k2DC83Yeh9FYjhNMebvQy+IFXNlkRQ/0SChWUdyuXKOZPoxC9iT4HF9+O2dV86mSfA+bogS8pce0L+oeifz2D2zLmOf63tAD8jSvwIFeKtMByXCHTRPPYHUNtaAw2wx5ujSK8UEyivZK8j6UZ/iezeU/dt9lz4PBeAzuSVwbvG9j6xXX+mWSUCChoCkBIpwtFO9EfqtaYCywoqqhCe3d531vwuERxfXOr0NXfx/OddbhkPJWnBxIRsFiANmHUdPpQW+/B257EXPVJ1y1iTpIRiFPRfJQ7JLf9t7BHrjsJTjEYiw9OFVth6tnQO7/UA8cFMsobZGPlSldYTP1Q7lmRJ66GfLrcIYAPORBcyl5dVa4FCBPBJLhzmNsNUiqczOIewc96HLaYKqmGMoluOw2NHd7cJHV3wdXdR4MFrsS7PUrvwBB9GSRUCAhxeArMBQXIaDQig0v43uKj9C5xpb3fef0pj+6ijbYhZp8C2gVw2GnqQ2tiFAcQVmtGBnFxXYbcnj8IrcINZ1tqDJN1iOhwe3BKVodUerILLDD3WydePl3CkAyPDKA9trDMsh4eySbstzqwanSPO05kxXNF7iCelT9sMLJPYILLSg2qWI89HFejz+OMSFIRkZxtrlcmUrJ9WSaylHfSdMtLwMvGxP1GHT7A9C648rbJvahxw1HRmOdI/hSuIPOvROCRWAdHCS0/Bt4bqJjd7UFhjErAt04YfEHC1kdFMcYjPDbBVaH38AmatvUnvfiYn+f/JYfY2yX2LlevnoUeD5IP7yDfQh6T2Adusfyc5nnoXNerj/CMdCpd2rlzCEcX/uZIskfPh5C9/9tQfOxt/APh02wZj+Fww/ehu/dcwNeeXwffpiTibcK8sIHCQGEvA4CSuDA0zTGeLBoTHngdXrHXbRKYSyHo5vcdXn59YzLBiMFGTuE0urJTJTFFxTCGa/pBMnvBy6ipuRNHPz6A/jR1+7C3z+2F6XPPoDir++HdN9NOLh7K3JuuQ6Pb83Avo3puOO6ZeGDhL4hoVUbPa+DAquhBFe1glV9NZlLS4z861a+ipH4SqOVh+ivkMf0TG28AxdRW1KA7xy4HY9sX43HbsyA6f5bkffYHhQ8cS8OPXQHLHdvhemWdXjplrV45oZ0HNiwBLvXLg4fJGJwhYELHZg+HZhKj4Q8kHLpVTy4NQPP770ZOffdge/suxk5X70ZL92/C68+eDssD9yGH9xzIw7euQWv37kFP7hrC769YyUe3LgY921aIkAijGH6jEHIOnxZTxVIPv3kE7z9IxMe3rwUB1anIffeXXjlvjtw8Mn9OPjUvXjtiXvwva/egpfv2Q7T3Tfg9buvh+WuLTDuWodvbV+JJ7el4+Et6QIkQrnDV24hu+mT3VSA5NLQ75FveByGLel49vp0PLR+Icz334kfPnUffvgN2g4g/5sP4NWv3YGc3dfjlTu34LW7bsCrd2zGd3etxbPbV+Cx65fjsa0ZAiTCGKbPGISsw5d1tEHy6aefIufph/D1G1bAeOsGvLB9FR7btBivPXQH3nzuAfzoufuR/42vIu8b97Hpzcv7tsO05wb8YPdWvHLbeuTctBbf3r4aT9yQgcduXCFAIpQ7fOUWsps+2UUbJD8u+BHu3roST1+fjh/csRGmuzYic3sGsu7ahDefuw/5z92PQ8/ej7xnDuCNx/eg6LHb8eMHbsX3b9+EBzcsxO2r03Dr6nnYlpGEG1emCJAIY5g+YxCyDl/W0QTJu3V27Nq+CXfdsIYt4b566zpIe7bgh3tvhOGWVQwk5JW8+ez9yH9qP0oevwfHnroTeft34ralV2H1smuRsWQuFqVegSWpV2LV0iQBEqHc4Su3kN30yS5aIPn4d4PYvWMjNq5Zis0Z8/Ho5hX4/q71ePPe7Sh6+A5867a1KMp8CCWZj+LQ0/fh8BN78NMn70HZQ7fhrusWYP3iOVi+MAmrl6ciY/G1bFux+FoBEmEM02cMQtbhyzpaIDlefgT7btqCW2/cjFu3rcejN23Aq3dsxaF7tqHk8b0o+Po+5D21H/lP3IfCR/aj8ok9eOepe/D1G1Zj5+qlWL8kBavnX4ObN67A+pVpWLbwamTMv0aARCh3+MotZDd9sosGSHo/+gjP7LkVe27ciNt3bMXtO7Zg764N+Pbdm3Dwrq3Iv2cnjjx9AIVPHUDhY/ei/LF78LNn96L8wVtw16Z03Lx2JbZkLMCuNUvx7a/ejZ1rlmDlgmuwMX2eAIkwhukzBiHr8GUdDZC88dqreOLOHdi3cwt27diCW3dcj1tu2oTMr96EvL034PDd1+PYs/th/cZ+vPXEPah9Zjccht34+6/twh03rMKtW9Zg1/p0PE9LxM89iv1bV2P76gW4betqARKh3OErt5Dd9MkuGiDZf9cuPHjjOuzeuBJb1i3HTZvX4LZtG/HUHVtQ+dw+VD20A+99ew9qn7oDx5/ejYZn78b739mH1/bdiLs3r8bNmzJwy/pl+C4tEX/rEezduBR3bF6OvTevEyARxjB9xiBkHb6sIwWJ53/OYv3yBXj4+pV45MbVuGXzYtyzdTn2bVuFB7etwff3bcOpb92Nlsy78Q+P3QzHc/fg/RfvxS+z9iBr13psW5aG7asXYuea+Xj27q0wPngnvrZ9Ne69cSVu2yD+r01Y/0NZGET4BiFkF57sIgWJzVqGjLSr8OT1K5F922rs27gEX7txKZ657Tp8/eZ1eHFHBt779h14/zv34t8Md6Llm3eh/fnd+OV39rKP1jYvnIOn79yOr96wEvvWL8ILd98A6an78IMn9+O7D98lPBKh2OEptpDb9MotUpC8/N1v47oFcxkETPdswsMbliJn+zIcvHsdCvdvQcX9W/CL7z+I//refvzn83fg/+bei4F3zHDlfhVfW78UWxZcDfMj+3Dw8f344ZMHcPjrDyDvyQN48+sP4PCzDwqQCIOYXoMQ8g5P3pGC5FtPP4jtqxbgvi1LcHDPVhhvXYfqB27EL94w4KP6AnT/OAv/+u278d/fvx+/LjKg15GHP370z+g68hK+uW019qxdiPxnHkDRNx/BjzMfR1nmEyh69mv48TcfxZFvfE2ARCh2eIot5Da9cosUJF//6h24df1i3LdlKftPd5bbN+Efnr4VH1a+gdEP/wW/a/oJ3jc+heOP7sL/V/Rd/PYf8zH470fwP6U5eH7zCtyeMRevPHg38p/9Gv7+W4+gOPMx5D95AIXPPIBDT90nQCIMYnoNQsg7PHlHCpKb1izG5iVzsTMjGYYb1+Ox1YvxyNoFeOnmlZD2bcF3bl6FJzfMx8Mb5uPpjYtx8Pb1+Kdv7cfR+3fiwKpkrF94Gb5x9068+vAeHHx8L0wP3ok3Ht+HgmcegPTwnukBSecHZ3Vz3wilCk+phNxmn9wiBcmu61ciY/4VWLfgKty3fhmyb16HrJtW4uXb1yL7luvw4i1r8c2dq/DctnQYtqXDeOta5N2zCQd3b8EtK67B8nlXYs38OQwmP3hkN17cfQOy7tmO3Ht2IvOmzdEBCeWu0fvtVlJ4+iFo+qX5vGJb0GuEYcw+wxBjHtqYRwqSB/fswg2rF2L76iW4bc0S3LN2PvZcNw/71i3Evg2LsHvtPNy1JpWV79uwEA9uWoRnt6Xj+Zuuw470a5F85Zdx1d/+JRZf/dfIol9LI6/k0Xtw8OF7ID28L3KQUJoJ+hHoYPl/eT4bSl8R7JopV6r+LjidLXD7svWNHcTe7lY0O91y4inxy+ZiWTzGdCBSkLzw5MO47brl2LshAwc2LceBTYvx2JZleHZ7Bp7ftRrf2pGOb+7MwLd2rkDWTatgvG09jLevQ85t67B92TW4+rK/xJV/+1e48rL/B/u3r8H3H96NN565D4WGh1FkeDRykPC0FHo/9kzwML5xBMVHf8ryAFPmvUnnt4lgIL0dNmRlS6jpVoARmHlPp+6xqTfHwmbKgafTLvFMPg6XcPFCF86M8zJIZFlFChLjd7+N7SsX4rYVC3HXqoW4a/UiHFi3GE/fkI6sW9ezj86evj4DT21djszta/CD2zbj0J2bId2xGTuWXo0rLvsLXPHlv8Rll/+/uHXtUrzy0G68+vDdyH/uIbz+WJgeCf2CPMU9aKt+511VMiy5jA8oeSPkrai3YFMgfk9U9p6TkCgplEeAJCryjAnAyXmSfdkUY6JNHHJTv48UJLaKH2PbigXYuWIBblo1Hzevmo/bGUyW4NGtK/Dw1hX46qZleGDTcjy+OQOZN67GK7dvxPdu34SdS6/BVy77C1z5N3+Jy6/8P9i1ZglefXgfW8WxPHEvfvSNML8jUYNB72+Ki5ACzxhIApVMeCQJMFURIIkEJv9ztgdbVy3C1pWLcP2Khdi6YiFuXL0Qd65ejAPrM3Df+nTctzEd921Yhgc3LcUT1y/HN29ag+dvWY+7V6bh6iv+Aldf/tdImvu3uHnNYnzvob0wP7afQeSQ4eHwpjYU6+AbTV1eO1TuO6Zy8lgIJG+fOKnxRgg6k/JIhjxw1pbA5Mtp04MuVx3KGrswPNKH9jobTnSo8tz0t+FEpQ2nepQ3Q08TyirtaOdusB5I+t1w1JbDYsqDVHEchZJ54pSdQx64G+0sjWiOSUJOfjlqXOf9RkrPrWtDr7r9pXXoGuRvLLnt1M7eTgeK8yXkmIpgVdcxMgrvhVbUlBaBnmEqOK6k7+R1dOOUuq8EzYD+9nbYUdbcjWHqY4Vcj6W6Fec0gL2Ecy47Clkb8iBV1sF1gWcdpHPHIUkScqQSlDWqY0c6fZBKUMX64M9JJLebi9fGJwAAIABJREFUt1neU7+qCvKQQzKvdKhiVjp1quXCxrcElCjeWGBDWeVJuJU8xv465fGoalC3Vfv8ePbOIoEIv3fv3TuxNmMe1inb9SvnY8fK+di1cgHuWLUAu69bhD3XLca+dYtx/4Zl+NqGdDy8eQVuWJWClLTLsThtDhbOvwq3rF2K7xy4C+ZH98PyxAEcfOqr4YFEPSAEB1qVUZfxvyl5FoFDvfFzwfce1OebYcg/BlePB12N5cjKNiOHFIiMdMSDeikgfaeSTNvn9gaCI/DYcxKWbDMyJSvqnU2ory2HifILS3U4qzG2AEX01MFiKkGx3QGnqwk1LH9wHmo4wOg5xjwYjWaYSu2ob7Ay5fcl/VbabrTkIdNUhLKGOlTlUw5iVR30DOrvETuaXU2or8iDQZNlUOfNHNA/ltvXkgdjrsQAUV9bxGRotHcr4zQAVwU9V4JU64Cz0Y5CyQILS1w+CjmJex7KGlvhdNpZkvasytNKIndZ/np9MFrkcapvOA4LJXYvcPiD10q/KKezT3ZGG9oZEILXyWQ7BiTKS2KoBYUEF1ZnKxz2cpjyJxjD8cY3hs9xGESy/9EPf4A1GfOxlm3zsDE9DVtWLsDmlfOwdeV8bFs9HzvYtgA3XbcEm5fPw4q0qzE/7XKkpF2JRWlzsHjBHGxfsxTPHbgTj9yyBeYn9qPguUciAwl5HgQS8kKCgyHAGCcaLAaFPJzg8Y0RL5pLzTBUnlaeETlI9AKrmjLKpaukC2X7YDl3R1pRnB2YvDwP1g5/Qm2Wy9gHKLntWQUOP7D6HZB8dXjhpL7mqwxwZEDuv69skiAxFvljRCN9OFVghqGiTZZhjx3GbAuKXf520vh5yagV4zzkVJ1joCrCKebh6fTBU8eAaarzp2+VYWSFi4230i9NTme5H1IzeZY6dWrkQjqk02+mKxKqeFB9It2K4/ORAITfe+HCOWy6bhnWZSxg29plqViXnob1GfOwIWMeNq1ciE2rFmDzqkVYvmAu0pK/gtSkq5CWfCUWpF2NhWnXYMkC+q3Wq5B2zd9g4bV/g6f33wbz18Oc2nBo0EoNgYRWZ3gZ31OcJL/ENqacnw+6v0DeggXWDg4gRcmq3VECiRtWoxlGldJTWzQgYYZjhiFb2bgBkiL2d8PZYGNufxZ5MT4IjGKY3ceNR24/M6gAkJiUN78sA7WByG3Tnh+F11kOQzavV329IiM9j8T3TPka1j+lH73NRaw+p55hddhYnyhVKpu+sb2FlZWxMZHHQ9PGQI9whHs1vM2nUUayzFXXKSGTytgLQqfOMeDQ6feIG1UmGgMLTKXHUd/eo3hNXHcSZ89hEOm+8M0f+kGyPM0HEgaTFfOxfuV8bFy1GAtTrkLytVcgec4VSE26EgvnzWHbgrRrMHfO5bj26ssw56q/w6L512JRWoQ/tUieCIFEb0mXlnr5NyRBoaGnyCNetFdLMOQeRmGlDcUFclJxJ493RDy1kRVSYwiBIAnikVxstyGHTbOOw9HZg97+JuZaa6dU3HhkJQ4NJPptkwFVDiebBugYVIgg0XoLAcbG6pJQTNMal3brUnkkGvlNCBK5zTkVNK3R1uns9nskmjonBRLyoPrQ5ZRjPQxMJhtcvphUQN909S0+rokUIPz+S5cuYcvGDKxMT8Wq5SlYk56KNelpWLM8lW1r0+djzbJ5SL32Csy99nIkzf0K5qfMwYLUazEv+RokXSND5No5dO4qzLn6csy5+rLQpzb0FSvfCBYEEn6s3lM5nedlet+ZBAOMt/M4jMZynCCl6+hCrxJYk6/XeXsprrXWoA+jnk+PNIbWjRqTGVnVfKokK5KzYqIYyXk5dqP2TgKVnT0nEpDoPWMUXXaC6TG4mSHogMRlhSHb318tvOT+qT2SYeZ1+K/XjMMYjzDQ0PTlb1J7ZmM8ErlfgTL3P1enzkDZjjkObNcohgflmIk8XdI5L0DCeHKy/h+QsSyJpZRYsTQJK5cmsZQSq5elYOVS+nX4VCRd83e4ds7fIWkOeSVXYi4HyNWXMW9kYdpcBpbka69EytyvhAYSCpoSIMLZQvFO5DemBcYCK6oamtDefV7lsirGll+Hrv4+nOusY8HAsVMMlaFoQDKKM3YKYB5GTacHvf0euO1FspsdMB3wKzoppfLc0iYWQPT2u1HPgq2BMZJIQDIKedohodjVx/rc22lnwVf/21qeJmRVtOJcfx/OuGxyQDcUkIzIUyhDvh3uCwPwDg3gTLsd1maKcZyX4ykWK5weL4ZHvLjY04aaIyUKmHWMfkKPhPcrD8UuefrhHeyBy16CQ2yap1PnGHDIADXWutHbPyDrg8cBq70NZwapnaPw0vdD2WYUuuRj7fjFN1i4RxGt/Zv5rzOQUH4ati2dixXLkpG+NBnLFyUjhbyROZexqU3KtVcyoKTO/QqDxryUa7AgdQ6WL5mHZYtTsXxJamggoYHhKzAUFyGg0IoNL+N7io/QucaW933n9KY/ugM92IWafAuLxDvsNLXJA4tF5Bb5PAw+xWAxjNwi1HS2sbny5DwSUqgenFIgQHVkFtjhbrZOuGqjfW4eChtbcUKKLkiGRwbQxcGmxGhMtaf9qx/sba+Aj9pusqK5h6ZYfnBO6JHQm/lCK6y05M3jQLl5KGz2yHGowdOokuS4iHzeAhMtH6tWWPxgG8XwJEBC/WqvPSwDW3lmpmRTlrYnAxIv3HZ+vxKM9zSh0KJupxk5FS0By9zxDRBuI9ECCK/n888/x0Nf3Y2lC67GssVzsGzZXCxfnoTFi65FytzLkTL3CrbRtGbx/GSsWL4Q5IVcfcWXcdUVX2YeytZN12HjugxsXLc8dJDwjnHvhGDBy/ieg4SWf3nZZPdslUMT3SdF6MYJS8CSL8UxlDfRZOsecx2rg387MVmF8+IifyNOqas8wXPCavvYPnoH+4LLkcWKlLd/1PpK/erDRc10dWy7xowVf77euLN2RlAnrzuG9xwA0dwPDg7g5u3rsWzxtQwiBJKFC69hnsiC1KuxKmMhtq5fja0brwNBY9miNFzO/r/NXyPlmiux4/r1uGHjatywcWX4ICGAkNdBQAkcdJrGGA8WjSkPvE7vuKtWDq46umna0cc22X2XUNaReC6rngxEWQhgiWHjj+Y4RhMg6ro++eRPMJlyfR7JkiXysu+yRcm4afsm7LpxE7ZvWYttm9ZgZfoCXH7ZX+KKy/6KeSs3br4OO66/DjtvWBs+SOgbElq10fM6KLAaSnBVK3D/15E5ueS609edNjg6VV+yzhLl0cpFGNdslofa+Kfi75/+tArp6ckgkCxeOJd5Izfv2Ix1K5eAgLHpunQGkisu/yvQRlOfW7Zvxu03bcXO69eHD5LZPKii7wJq060DUwGPwDp//esevPRSFpYtSsF1q5Zi104ZEgSSDauXYfWKRfjKlX+Nr1z5Zcy56m+xc9sG7LxhA3bcIEAS1vRrupVIPE+AK9Dop/KYUnu+8r1c3Lx9C3ZsXce8EfJMNqxNR3LSFbjqK3+LOV/5O+wgkNB240bhkQgjFUYaDzowleAYr+6uzv/G4XwJTz76APbtvQObN61BctJVSJ17FXbtvAGPPXI/vvXcMwIk8aBEoo0CduMZeyyc+5JQUqGkQgdiXwdiARbjtUGARKwAiThRHOjAeEYcC+cESOJAiYTHEPsew1SPUSzAYrw2CJAIkAiPJA50YDwjjoVzAiRxoERT/bYT9ce+xxMLsBivDQIkAiTCI4kDHRjPiGPhnABJHCiR8Bhi32OY6jGKBViM1wYBEgES4ZHEgQ6MZ8SxcE6AJA6UaKrfdqL+2Pd4YgEW47VBgESARHgkcaAD4xlxLJwTIIkDJRIeQ+x7DFM9RrEAi/HaIEAiQCI8kjjQgfGMOBbOCZDEgRJN9dtO1B/7Hk8swGK8NkwLSDo/OKub+0YocOwrsBij2Bij8Yw4Fs5FBSSUu0bvt1tJCemHoOmX5vOKbUGvEcoaG8oqxiF2xyEWYDFeGyIGCaWZoB+BDpb/l+ezofQVwa6ZWIH70OVqQnPUfrfVi7MdrXC086TasatAE8tGtH02yGg8I46FcxGDhKel0PuxZ4KH8Y0jKD76U5YHmDLvTTq/jSZ2ISdH0uRS0ZwP1ZjkPCq+pNoR1RXqs8X1s8Hwo93HWIDFeG0ICyT0C/IU96Ct+p13Vcmw5DIuRPJGyFtRb8GmQPwe/b0Aib5cBJRmi1zGM+JYOBcWSNRg0Pub4iI0wAIkwtBni6FPdT9jARbjtSEskFCsg280dXntULnvmMrJYyHBvn3ipMYbIehM1iPp7XSgqrQIOVIJimvLQUmqfVObniaUVTbhjGpKcqbZhrK6NlVqy0s45zoOSZJYHWWNbtW5sVMb74VWVBXkIcckISe/HFUN6usFEKbaUET94+vYeEYcC+fCAol60AkOtCqjLuN/U/IsAod64+fG28tJxM0wVdSh2VmHqlI556sPJCwpuDZZt6vCrMndK9eRh7LGVjiddpZoPKvytJKMPAAkQ3IWe2OlA05XKxz2cpjy63BWBarx2ivOjW8EQj6RyycWYDFeGyICCXkeBJLwV2P0BKzEQ+rUqUADYiQTgUQBwyHngB9w7J4inOqnZwaAhCXBllDVrdceUSZAMPM6MJ4Rx8K5iEBCKzUEElqdCVQ2ipPkl9jGlAdeN+a48xiyspVs8z6PIESQdNhgyJbTfbKpCk1XTHLW+rIOHZCMuFFlMsOQbYGp9Djq23sUz2XmFWiMfHwyEW2bTbKJBViM14aIQEKeCIFEb0mXlnr5NyQhDTjzHA6j3qM2lBBBwuqQUEzTGpd269LzSMg4h/rQ5bSjMF9CZrYZBpMNrkF1G8TfIY2jAF7oL9FxZDaeEcfCuZBBQl+x8o1gQSDhx+o9ldN5Xqb3nYmuYnbbkZNtgZV5Dtx4W1GsDrbqTG2c6hjJhZOwjKmD10X7gKlN4AAOyjETqVkkLtcdo0B5ieOoQkNP5rEAi/HaEBJIKGhKgAhnm7x30o0aixmGfDvcF/rQe8GNmnyadqhWbdjURUKxy4Pe/h44K/PYeYPEA6TncarADIPFCqfHi+ERLy72tKHmSIni6QSAxOOA1d6GM4N07Si8npOQss0odMnHegMrytRgFn9PtT6MZ8SxcC4kkJCw+AoMxUUIKLRiw8v4nuIjdK6x5X3fOb3pT1Dhexw4xGIWctxCsrtxqkIFkpEe1CtwIcDkVDThTHO5ZtVmePA0qiQ5LkLXsPhHdSvODel4JJ4mFFrU11KdLTgn3rRT/qYNqgNC9hrZxwIsxmtDyCDhA8+9E4IFL+N7DhJa/uVl4ey9g324yAxf/4030Xn2zKEB9PYPTC54yq4d/5nh9EPcoz9+Qi6Tl8t4RhwL58IGCQGEvA4CSqBC0DTGeLBoTHngdeJ48ookZDW7ZRULsBivDWGDhL4hoVUbPa+DAquTDq4KF1YAV+jAhDownhHHwrmwQSLekLP7DSnGf3rHPxZgodeG9o4ulFaegACJeBtO+DYU0JheaOjJW8+IZ7Ls9x8PM4DwFVwBEgESAZI40IGZhIbes8kLIYhU1v4jznrOC49Ej/6ibObfwGIMtGOgZ8wzVcY//SCI8H/CI4mDt5EwKq1RzUZ5cIONhf2PfyJ7I7/2XPA1R4BEgERMbeJAB3wWGwN/vCIVs2mNuikCJHGgRLPxDSz6rPXC1EY703/zAKu6HQIkAiTCI4kDHVAb7Uz/LUASBwoj3sTaN7GQhyyPmYaH+vkCJAIkwvuIUx1QG/JM/y1AEqdKJN7KwkuZaXiony9AIkAiPJI41QG1Ic/03wIkcapEwiMRHslMw2Oi54tVGwEX4aXEgQ5MZMgzfV6AJA6USHgkwiOZaVBM9HwBEgES4ZHEgQ5MZMgzfV6AJA6USHgkwiOZKVAMDg6ivr4er732Gp566incdtttSE9PZxv9/fTTT7Nz0wKSX33wIc599Fvx5hPQEjoQpg5MJ0h++9vfspzZu3btQkpKyqS2qIDk5L+0gGCh9+Z8559OsV+azy+2Bb1G7z5RJt7CQgf8OjAdICGAmEwmLFq0aFLwUEMmYpCQp0HrygQTvYE/UlHLyuk3DIJdo3effpkXZzua0NwpElfpy8eveOJ8YsliKkESCUA4TCIGCXkiBJL/cP1yDEgIHvRfjouP1uJQiQ2vH34rwimOnNjK1OAZ8yxhOIllOGI8teM5VSD505/+hJdeeilkD4QDhO/DAsmHvz7nS3xVbX+XgaTx312+Mq4E5I3wr+D4PtgUiN8z/l6AZHz5aJVPXJs48pgKkHi9XuzduzdiiBBMwgIJh0KwPcVFSIkFSBJHkQWUZnYsow2STz75BHv27IkKRMIGCcU6+PbKG0dgebPcd0zl5LGQ4r39zsmwPBLvhVZUFeQhxyQhJ78cVQ1u9LJod6BHMoD2BhvK7C04O3QJ7kYbCu2t2qx63Q6UVZ6Ee6gHzdXlqFHn82XnmnDGF0k/D5fdhiqXPHXq7WlFfW05LNQOUx6kSge6BrlC9aG9zoZTPaOQ21uC+h75XG+nA8X5dI8EU4EVNc4ebZt8z+N1ib0A1fg6EG2Q5ObmRg0iYYNEPejklVD+X3UZ//vi4O/ZSg1NZ/jGzwXdD7WgMNsMY6UDTlcrHPZymPJ5cnAtSM42HIYht0hJDD4Kr6schuwinOr3D4qrghKSO9A74oWz1AxDaYvPqNm5bAk13cr1/Q5YVMfOCgtMpcdR72yFs9EGI+UQ9t0vt8VSfQyWbDMypXIGleEeO4zZEg7Zm+B0NaG+sgQ5la268gkqAwEaIa8AHYgmSN5+++2oQiRikJDnQSCJfDXGb/jDnjqYsiVUcePWCJSDpAcMItmHfRBhRqlASGrmqzptKM42o9DpZYrpdRJorHCxOt2wGvNgtPiTk/c2F8FgPAa35pn+tp2ty1MlKpfbYsiWUOzizxvFcLsVhuwSNPs8F//9AhxCFuHqQLRAQis0oS7vJicn+8BDf6uPCSIRg4RWaggktDoTKCCKk9BKTWD5xMduVJnMMGQr3kC7elogG29O/mFkZeehpufSmPqZl1FAHgj3UMrh5InIGWgssHaOYrjbjhyTHW6Ci0QejxfNpWZkVbtVdV7CuU4HakqLkGOywEAeCbuWDEJpS21A3/ubcCjXDENuHqQKO5q7+3we0MR9F4YmZKSvA9ECSahTGoLGtm3bcODAAezfvx9JSUls4wDh+7CCrXywyRMhkOh9tUpxE/4NCb9+0vuhPnQ57SjMl5BJxmuywcXe8IpHUluHYqMZWRVtuBjoPXQcQxab3ihTmYo2FRhkWOTYu9Fll2RoMLjQdIi8FwUyrM4e1OcTEA6juKEVXRf64LaP9Uh0l6KHeuBqsEGSLKz9mfkncTawneJYNS76xjNpfZkFsowGSH7zm98gLS3N511wCATbE0QeeeQRtLe3489//jMoQPvyyy9jxYoVY+oIGSQsyPpeC06+18K+C2FTG+WYyvhG5fTdCD/W+85kUooyKMdM5OmKAhL6jsRTx2ITloaeAIWkKYsZUsNJFBIYOrRKyqY3pnIUSmYUt9O5PpwqMKOwwoos4zG0c6XssMEQMHVi06kAj0QXJLwO2ndTzEQNKG17JiUDdX3i74Dxnh3yjAZIXnjhhTEAGA8i5IWcOXMGn3/+OQMJwYS+OykvL/fVk5qaCtpCAgn/+IwgEeo2ae/E44DV3oYzg0pcw3MSEsU52GqLCiQjo7jYbkUWxSjaBzTKdYY8B/Jk9OId/Q5WnyHbP+WR4y00rTntr4eBJA9V3TR98uKsywYTTVkmAIm33Q6rswvnBum+S+htPwYjm4bNDoUXYJyacY4GSLZv3+4DQDCA8HKCSFtbGwPIz372Mxw8eBBvvPEGA8mfP/8zXn/9dSxevJjVR55LSCAhJeGrLzxtH63Y8DK+p/gIgYY+UuNletMfXaXzNKHQosQjCAbZZuRUtOAcexNrQUL36wZd2cqJGUZ7tx8Mvje57IH4V1+UeEk291C4IihTG6UNmdJxtDdbJwZJ53FYjHK7GcyyLZDsXWOnYL728OeJva4+CDkxHY4UJB9++OGkIfLoo48yT+SLL75AcXExNmzY4Lv3mWeewUcffYQ/jPwBJ0+eZN4IxU1CBgkfbAIEhwUv43sOElr+5WUh74cG0Nvfh4s8UBqKQrGVHwrGRm6c3sEw28DaPyACraGMm7g2qL1EChICAvc2xtuT10KeyGeffYaf//zn2LhxI4MFTV/I86A9/ZzAZ59+hk//9084aHkdK5anhw8S8jYIJASUQEjQNIY+VAssn/Lj/i727UYVBUmVlZspf6ZQ/ukf51ko80hB8uSTT44LEoLEQw89hN7eXgaRo0ePIiMjwwcPAggBiK6jbf+9+/Dx0BBGR/6Ac785Fz5I6BsSCrzqeR0UWA07uBqJklxwQDJakJN/HO3iOw5h4JHoUozdGylIdu/eHRQkBInly5fjgw8+YIHVuro6bN68mV2flJKCpLRUJKWlICU1DcnJC5CalIrFCxbiwL79+N8//hGffvJJ+CARb/rIp01ChkKGk9WBSEHCwaA3rdm3bx8+/fRTtr333nuYN2+e3/tIScK18xfgysUrMWdhOhYkJyE1OQVpyjYvNQ3zU9MESCY7kOI6YfQzqQORgmThwoVBPRICCX0j4nA4fDERNo1JScFVqYux9PEfYuWP/gvrDjbjy0s3Mu9kXkoyUlPSMCdlEeakLREgmUnlEM8WcJqsDkQKEvqdVT1vZGxZElJSkpCckozklCSsft6GVWWDyHjrElYc/RhrS88jbe02EEiuSt+JtKx/xtyX/lOAZLIDKa4TRj+TOhApSCb/DYkWJBkv1CLjrY+xooJAcgkrSgeQuu4mzF22CSnP/xxJL7fjauMvBUhmUjnEswWcJqsDkYKEPjAb633I/+GOPI+UeWm4fe8+3Lb3ANZu2YzktBQkpyYj48VaGSKBIEnfjHlZ/4q5xl9gjvG0AMlkB1JcJ4x+JnUgUpA899xzQUFCEFmxeSs+GBzFr373J0hlP0HqksVISUvGihePY8XRYWVTeSTLt2Dxi+9hrrEd174iQCKWSGNsmXMmjTWWnx0pSMb7IO32vffig8E/oMP7Z5z+/Rf41dBnyLH80AeSjP+/vbP/bes67/jfMGBF0/ilbjogbdKXIcCW7pci6dYBCwas2/6EAftBQLRakSVnNEKmjHNhSbY0vURSFFpSZE2yOYCp1FGw1EhxWY1V6EbMpIVGqISVFUqWZFqWVCatE/s7POfeQ557ea9IXpI3pHUEXNw3nnte7vN8znOec3SfN/bwpI+2LEiOfPsH+ObJaTz67+9KkFSz4MiySQtIlIFSQXLQEvnn/vGf8f72PSymHuC3d4Df7jzAqbPnGUiePDmOJ3x7eOLiHp4QQEI+ksd+Oo1HX/wNHnFF5NBGfFnyWCpvtcpAqSCh9FYOVwJJdPtzRFMP8F6KQAKcOnshA5JvXdwDbUaQnPjpLyVIqlVgZLkkzMxkoBwgeemll0z9JGYgaXq1XQ+SQT1Ijjz+NE6c/CWOSItECqyZwMpr1SkX5QAJfdjI7DOLf/Pc3+dYJJ7/eCMHJN8WhjZHHv8BTpx8G0dOh+XQRipNdSqNfC+576UcIKFn0DdFjNPAP37uOfzv9h+Zj+S9Ow8QvfsAnvbXcfwYzdqM4gnfDh6/uI8n3riLP3/tExx/6kf4GvORXMWRF8P4qutd6SORQpsrtLJNqq9NygWSu3fvwrjK9cnvfgf/+sJpLN75gm2jgbfxd3/7D6D/ozn+zD/h+y9N4fE3PsVf9H6CP3vu3/DoN7+HR77xJI7/6F/w6Iu/wldcCxIkUmmqT2nkO8l9J+UCCT2HvjMiWiVHjh3F177xdXznr36I7z39LL795HfxdfpcwDH6b99j+Oq3/hJ/+v0f45Hv/hBHjh7HI0e/oS6hP/EIjjzxNP7kO38tQSKFNldoZZtUX5uUEyT0LHGIc5S+M8L+t+Yojh05juNHH8WJI4/i2NHjOH7sKzh27FH2fzcEFbp/7MjX2X//nqD/AD52FEeOn5AgkUpTfUoj30nuOyk3SOiDzhReQrRMijk+flz9Whp9y4Q2259alC8792XLNpFtUikZKDdI6HlbW1t4+umnbcGEA4TvHQEJfY6x4I8/yyXbctm+lIEcGagESOiZFF7i9OnTtmAiWjBlAQl9ctEs2h7RmT4ETV+ab+0eMv2+a6UILp8rrYOHSQYqBRL+XIoHXEzwLBEidFwySMjSoI9AE0zMXhyPZ0OgsfqNPl0KK4uzmFsS4umWoYdKJa4jNLOAG2V4lr68UmFle1ReBrjCV3Ifj8dx6tQpPPbYY0VbKCWDhIelMPvYM8HjjNKN7jfGWBxgiryXf4iTG7umHIKqxr/hAcQr/+LLUWb5DPmeuAxUEiDGZ9OX5F0ul+kqWKMlws9tgYS+IL/0QZxtI/5fZOLb8Gu88mSNkLUibmbhK/jv1b0Eib49pDLJ9kgbdd2xc4r763a78ZOf/ATPPvssnnrqKQYYWmpPx8888wy7ZwskIhjMjskvQi9fgkRCQEKgPDLgGDlsZmQLJOTr4BsFwvKe78+c03WyWEiA3rwyqbNGCDqFWyTLWJ4ZgqIoaGr1IRjTx/fd24giONCJJrcCb68foTWKtSu8tJ0EQn4fS+/tHUJfu4K6RnVos7kYQPdAUPCX3ETYP4TLi4JfJhZE3+AkoizS3y5Wl4IYHeiB262gyd2JDv+8FkaU8oxhetCPyEYayaUguluHEKJ0VIYxIc1YANENoYxieeWx/v3J9tC1h039diyZLZCICktwoFkZ8Ro/puBZBA5x4/es9+rQhuLm1iv9GJ0JYriVINCC0ZimhNsL6HZ50NDlx1x4HsFBChp+ARMJ7f7OdfRR/F13J4Zn5hEkoLgpHq/oeSCuAAAY4UlEQVTmI2GxgZXs81iITw/EeMCREa9wHsfl1hYoA34Ew/OY8/egoVGMLbyA7kYvukcoqLkHTe3jiGykEOr1oM47xNKEZvzoUDqzZZSKYioz1nJxuAHsGBFsZlQSSMjyIJAUNhtTqCCoIGnondX1+KNeD+oGFpjw3fC3oM49juWMMmppRqLsPnOsunwICdH29M7WGEbdHrinEuz3yblO1Hlb4OKg2Y/C5/JAmRMslExeaj1CA9ny7O0TSAhUF3A5zi0jtUxNY8tSYQxtJ2FRqC5kf2dTvx1LVhJIaKaGQGK2hoT8JDRbU7zQqArIlZynD5PiKgGs7N/EBMX2bfayYQ0NbWhraPagrnUSq/vrmG4nJZ/X5a0HSRrLfkWLD5zCXK8HHaEog0t3JI29mB9NjZ2Y1g1D1nEjHEBfewuayNohcGhg4yBpC+mHX9ExsqRUy2p4agErdgKiSyXUvUcuD4dt7xgRbGZUEkjIEiGQmE3pkt+EryEp7qXnA4l6v659HKHwvH5bjCO1r93PKLlKdSNIVFj0Y27jGjo0aBBcGkaiYL8Vg5BvL6CPhkZsqBTFjY11Bh8jSBiEdIq/i2RsFqO9nWgi0DUq6IvoYVNc22R7KJnucLWFTf12LFnRIGFO1qvXMHn1GmhdCBvaaOd0jW90ne7zc7N1JubKYAaSmwiSFaLBITJI1kcQSZ3ScsFSLQzj/ZUA+VHEdSTq8Katt1+zdNLYW7qEBrcP3e0eeGduZnrC1akLhrRpMAspAyt1aJMLEl4m2m+p8BEBZVp+MY08NpeRw9cujhHBZkZFgYScpgQIO1vh1okKkqbBBaxurCO5kUDUT4osOFtJ4Ru9UAJRJHfSSG0nsBwagntE9aGkwv2s9+8IxZHcWMeNkA9NzIchgiSNKDlUc5ymZDl0IigMa1SQkPVCMzHriE71qM87ECRxTI/4EY5vIUXA2IkjSEOu3mvquYRIBtQSFvnBaFO/HUtWFEjohfMZGPKLEFBoxoZf43vyj9C9mXfCmXtmwx9zAVpHaLBF9Xkw5Sd/yAUMi1Oz+2mszPVrwwXVX1Hv7sdEZln9FiJjF1Cvpa93+zAX8QvOVO3FMSAJszf7mjXDfDHCy+VDG+15Tb1BhAIXMhYS95HoLZIEpntbMmVgvhIqx5rwXAkTCZMCZcAxItjMqGiQcOXn1gnBgl/jew4Smv7l1yqz38Xmxjo2rZyYO1tIbqfKVobU9gF5WQqEWsbkNp/NkSCpjCw83O1qU78dS2YbJAQQsjoIKEbBoGEMLVQzXpfnD7ewy/dbuffrGBFsZmQbJAQQcryaWR3kWC3cuVq5xpeCLdv2YZEBm/rtWDLbIHlYXpCsh4RNLciAY0SwmZEEiaVvQypYLSjYYSmjTf12LJkEiQSJ9GXVgAw4RgSbGUmQ1IAQHZZeV9bT2gq2qd+OJZMgkSCRFkkNyIBjRLCZkQRJDQiR7Kmte+rD0jY29duxZBIkEiTSIqkBGXCMCDYzkiCpASE6LL2urKe15WVTvx1LJkEiQSItkhqQAceIYDMjCZIaECLZU1v31IelbWzqt2PJJEgkSKRFUgMy4BgRbGYkQVIDQnRYel1ZT2vLy6Z+O5ZMgkSCRFokNSADjhHBZkYSJDUgRLKntu6pD0vb2NRvx5JJkEiQSIukBmTAMSLYzEiCpAaE6LD0urKe1paXTf12LJkEiQSJtEhqQAYcI4LNjBwBCX1NrfCPP1tTWfZYsm0OqwzY1G/HkpUFJPTJRbNvt9JLpw9B05fmW7uHLH9zWIVD1luCsVAZcIwINjMqGSRkadBHoAkmZo3C49lQ+Aqr35ils3MtlbiO0MwCbtSAqWqnfjLN4QWPTf12LFnJICFLhEBi9rFngscZpZvFAG7rGWKR9yo5xMkJy1ljQGHlb+5RA3FVXdl3sbm2jBtC4DAJNufA5hgRbGZkCyQffrSKpQ/ibBvx/yITDItf4wJG1ghBRtyshkA8TSn7WgfJZmQIbuUSIlZxer5UuBQSltQ5xSpFTmoxrU39diyZLZCIYDA7Jr8IvSwJkodJsSRIvkwAOUYEmxnZAgn5OvhGgbC85/sz53SdLBZq9DevTOqsEYJOfotkHZHAEKbjaaTW5jHc3oOJOFfIdURnhqAoCprcneieieoCiedaJLtYDY+rv1d60Gf4vblgxDA96EdkI43kUhDdrUMIcQthI4rgQCea3Aq8vX6E1gzR83YSCE+No6NVQVNrP/oG/Qgu8WDkar0ui6FHNxZweVCtK5UluehH3+BsxsfDzudi2NtJIDTWA2Uqhr39bPuo5VPQpPRgOEz5UPv44HUrcLePI6QLD3pQW5g8090JH3tmGnusnD1wUZzk9iH0DU4iqrVJpgwsTx9GQ3EZ27gClqNN/XYsmS2QiApIcKBZGfEaP6bgWQQOceP3rPdqEHHvyCV4Gz2oV/oZVPb2txAeUFgcYN/MPEIz4/C6PKhrncSK9uKMIFHPW9BHvw/50ebyoGHweh5Bp57Xi+4RHxoaPWhqH2dQ2dteQDel7/JjLjyP4GAL6hovYCKhQW7nOnxuD+oIcP4ggv4htHk9qMvEEVbr5Z5KZNsqEYC70QMeM9i0/K2X4GtV4x93EFT21ee4vC2od3eibyqA4VaFBVl3eam8Q5iY0tqmPZgB7cFtYf3MUYJ4DkhU0O7FKZ6ygjb/LELhWUwM9qBpcD5bvwoolLXc8M7m4dw7RgSbGZUEErI8CCTlnY1RhbquUUF3eD0rlExovfAtCoISI0HOXtMp4s41dDR60Bbayj4j4kNdYyemmcMwxeIGJzfWwbZMjGDVhCdIXI5nLY4b/hbUucexnFEOtZwNI1H2fHbf5UNoO1s+Vp5SQdLoQcPAfAYIHCQN7cEMQPcSAWYtuAPxTF2LawutLuIzN4JQBMiZBkpn7dmDOaHOh1XRK11vm/rtWLKSQEIzNQQSmp0xNiT5SWimxng9/7kq1E1j+mcm5zpR1+hDOKPIpLAxjLo94L28TnkWh1BHFo2bhkF887JrfQQjzRqg37Ato/AqSHQA2r+JCWYVeIVnKWhoVi2i1f11TLd7UDeg743LAhIdvKjOavvwOrP2NFg2dK2otjB75r7RJ2I8J0tlFm3UBs0tUAb8mIut57H2spDNLwfyt2IbOUYEmxmVBBKyRAgkZlO65Dfha0jEBsl/bKIoRsXIwET9rctPJr9BeVhvqaCbhjVh/bZcgEXChxtqedV86sjvYHhWaJF8Atr9gQUdOMsCkgzguGKZtE8+kORtC5NnFgISeg87cYSnyG/lRT2BWxhq5n/XvE5yn6+tbOq3Y8mKBglzsl69hsmr19i6EDa00c7pGt/o+isXXs+cm60zMW88M6FOY49ZGIJPggmxOnxR5tQhkK4XXpuEVxj2mOdlJsAmPe9+GpFBsj6yPgf981KY6829vxJoyesjIQcmh5au/ByM5QBJ3rYwa3NjOxjPTdqODzWXTO5l4C/v6WWnsPZwjAg2MyoKJOQ0JUDY2Qq3TsyEmho7Ch9zrgZwg2YMdhKY61VQ5/IhrM0g6BXxpjrc8PoQSqSwt5/CZnwBo109WQepqXBbKMzSJTQ0eqEEokjupJHaTmA5NAT3iGqFpML9IL9ORyiO5EYCyzP9zFmbdbZqw6PWAJY31rG6FGDOXxpWVRwk+/nawqzNje2gnrvGokhubLEhTCrihy+0jNVt8iXtIhm5BFdjC5iD1rRtC1MaO4r2sKexqd+OJSsKJPSy+AwM+UUIKDRjw6/xPflH6N7MO+HMPbPhj/nLNxNqTQDXrqGbZka4X8Pdg6DgENWDJI297esYVlS/iJrGC/fIPFb5dK6psBsVKCv8K3P9aCKfgJZ/vbsfE0vcIbyFyNgFZt7T/Xq3D6M0syNYFLTgrImXvbkTo0sLGHY7AZJ8bWHW5sZ2SCHq5/VrweVEGqklbXaI14lA61/Gpmm7ZtvR/L3L+we1i2NEsJlR0SDhleXWCcGCX+N7DhKa/uXXyrlPba8jyXrBAoVvZyvTi5Zejl0227NpBSPKS5sBYmATQMLyFu6XXpYC6y8qdqltYVb+Up8plk8em+qMTf12LJltkBBAyOogoBgVgoYxtFDNeP2wnZuCRCrKoZcLO3rgGBFsZmQbJLSGhByvZlYHOVYLd67a6FVrRBlXpjrR0BXEao2U146AyzTOyK9N/XYsmW2QSAFyRoBkO8t2Jhmo9j8JEmktyKFGDciABEkNvCTZ68tev9plQIJEgkT2+FIGSpYBCRIpRCULUbX3lrJ8lbfoJEgkSCRIpAyULAMSJFKIShYi2eNXvsev9jaWIJEgkSCRMlCyDEiQSCEqWYiqvbeU5au8xSRBIkEiQSJloGQZkCCRQlSyEMkev/I9frW3sQSJBIkEiZSBkmVAgkQKUclCVO29pSxf5S0mCRIJEgkSKQMly4AEiRSikoVI9viV7/GrvY0lSCRIJEikDJQsAxIkUohKFqJq7y2/zPKlP/0M9+59jvv37+PBgwdl0Td63lryVkHbJ+ub2Ni8ja3bd3BnJxtQrdxtUpaKVfAhjnyPhD7HWPjHn6UZW24hfBifRwD54v79iqhGauduQRAxg836rW3s7u2XvfOoSEXL+NCygYQ+vWgVcY++NN/aPWT6fdeHUchlnSrbGfzhj/fKqAL6R5FVQ1aGGSSKuXb7zt2ywkRfyuo7KwtICCJnlG72MWijEvF4NgQZWzGC2RfKeXzeMpiOG8sIha4hyqLtmQt8MjaPuVBUiLdr/juxruzL9hRHOBNDOH8aMT3F3VlZnEcwokYN1N8r4Fk7u/bCZQrta/ll/Coanv7hD3+sqBal05+WDBEOnFSqfDCpaKXL8PCSQUJDFg4R+qq8qAAED7rX/cYYiwNMkfcKHuLsJBAa4XFUDLFkYhTwqgDl2k8jtTiEhkYFozHt9yx8pSFin+FZ4QGPLh7NQXklF8fhFmLdsJg37h4h3k1h5eQxfesMYT8PypvfS0V8qBfraKhPcobiJhvqbNG+Tb2TWLYKtWF4Ls/fqf3v05+hTG4QS9W5tXW7bCBZS27i7t7vC5bVg9rRssBVcqMkkNAX5ClQOAGEb2JjkDXCr/O9WfgKMY16HFeDdje2oI8iuVFPT9HpYrMYblfQHS5UOSlY+CQUCqSVKD9INiM+Fk2vocuPcFyzmlg0P4VF3euObBUhRGqQKjsg2dtRQ5c2jFw3ye8mghQAXRdu1Kx9E1gO+9Hm9iH0JQMjVx7Ud/fFFwf4RO7tY3d3B7uffm6qWvc+3cHu7j4OGhSZOllXP0bswzhiH32SA5jER3F2L75q7Zhdv1WMDFjLtWmlquhi0SAhECx9EGebESIEC1EI7IJEjZjXkrUidIK9i1QpPWa5LJKdBXRTCNHeayaR5TRFdV1CVFd2a0EpxSKhNo+MeFHnuoSIMb+4HxRfuCOcteJUC8WqfQ8q45d3j5yrVn/p3wVw9rQXZzp78fJpD5pHFpH97vo2woMK6s90oaWzFfWnu3B10/xJRidrdKoLp5q98LTR3gPP+HtIsNmc9/HzjlfxvKsDr7Sdw/PNHXjz+moOaPgQZ+funk4vRB0p9Ni8xNVztSiQEES4ZWG1FxvmzSuTOb/Pb5FoPXPvtYLG/MlFP/oCC4I/Yx2RwBD65jRfQ3wWfYN+RLhPxAwkG1EEx/rhdbdAGRhHh1LA0IY9RxgyGRV4kWIFZ8Nx7lE5qJw0pBjrgdutwN0bwPI2V07RItlFdGYIHf55fRvEgugbnETUDKQxPwsHKgKD3sUNfwvqGn0IZ8pXXPuK7/PLPLZ2sMYwfEbBcIxbImsInPOga1EFz+7/dKG+cwa3NZ1LLw7ihbMBrBl0MMfJujqNtubX8N8fadbGR2+j3XUOFxdvITH7Gp7vmkZcmyKOz76Okz8bw3WLKeNyOF4Nxa2604qChIY+BA5xyy+M8+hu9MA9lSiI4rnR7ESFTGPPCA7jeWISXorVq/gwEZrFxFi/6vMwhtrMKKKq+CsBo4JyIPC9oR6Ur6sFLpcH7l4/JqZ8zFIgiybFnq0vtxqUvBPTHID7aTDfjW6IwvOifQyjXtVCUp9H19TA6/ohj6Fchnrlfz9ins4d3/ucg8KgQytjeOHsJDaEywSPupElADv4VacHfYvCTRB42nE1JV4DcpysS1dw5mdXEBXg8OuLXnjeiiH61nm8OP6+YIGE0es6jysfmA9xNrZuFyTLB7W9vrTVd1ZRkBzUMJb3EgG4jSBJBFSlywSrzvawpYLEzLGqv5ZisX7JR8M2bVaG/UbX0xuVSg3CnQEiA1gLfIvZMXOUhiMZYOlBwv0eyhwPUq4+ryOUHaIY21AdsgjwYVZRC0bjQtnM2rcGYHL/vsVis6VB1A1G9JpF184RXDZw9VwrArqhDF3zoI84I/zlOFnJImk8jzcX1SFL4sMw3mzz4sxby8wiqTs7huvMN/IJYr+5glcIJEvmIKHpZOO7KvZcKGpVHlYEJGSJ0EwNDX+4VULHhU3/mvWY61gOzyMUnkdwgByZ5QKJ2mO7AnHdi9aBRFM8NhtDINMUP69FojlA9SDJlpsESQ9BA0i4BdIeZMM21ULpR8hsWMNBoOXpnbnJ6sPq4fXjBr/P9mbtK4BG99vquW65apWgMRDWO1F1IFHg/52oe7kgMXWyJm8hPj8CD/nBGj04ea4Lr7zkQfs1gsXHeGe4Aydpto58KB0dONX4Ot4WrBfuH6G9BIlBqAr1kfDfXfn5NBNo2hNIzBas5ZJZUygLE151xGYVUq+MJPgGhTQOZXTnBqtBq68OJPvmFok6ZPLCt2ihbMwa8MK3pN1n+WbLXQhI9tgzyMJIIdTrQf4ZHe13BA8DVLLtfHD7Zn9nUS+DTDj1+88//0KkQfb4dwE0vxzAx9kryA5tPmPDwa53RUdt7tDG6GQVIZA5pqGOawi/NoFFdPw8Tl4MC0MdvWWycWtb11HZaTOhelV5WBGLhNaKcGjwdSbe8/0FN6YKCwVm06f5QRLHZfIV8PUYOnAYfSYxjLo90PsQ0ggVtI7kOnzUW7UGsJKjXCazNnZAovk4lKlJdDQeAC0xf204MzzWj7rGfsyZWDDqEMi8fff2bS5sE8tQgWNrZ2sC/rNe9C3uqwp2L47/PKtgeEU7XRzQhjnq+e67A8z5uqupY46TNQcUq4jO+nCm+TwuXv9YD4vV93H14nk8f24Mv+FO2Zz0t5hVbgceYhqtuFW7KwokVDHRcUrL3o2zN2LlfxV+L7NYjYNFvG99zNc5KGjzz2N5TfVP3FgKwtfq1Q1tVqcusMVWl2PrSK5FMdFFQ59CQcJnNS5gdCmB5EYCUX8n6oUhjHUZ0+DrSOqVIczFKL261sVHsz6NCnyLgj/DFkh4+TxsarewqWQVjqwNMo5co3Uhtu8CbjD/TxzRmXEo7uqcFv7sswNWtG7OoP1lD+pfVvDCaQ/OvhUXpn/38X//1Y760140v+xF/cuDCAuO1hwnqwiCj2jmxoNTXVfw6w/1VkZ8+jU833wObW+FERPTmByn7pS+IrtqCaIVrGiQiIpF/g8jTOg+H9oQZM682gUCipiusOObFitbezAcTmSnRbcX0OfmK1+9UPxRhMeUAi0SUrA4pjl8aPam3Y/onC/jC8lX1uRSAB2Z/NVy1Lv7MRHLOlXZM2yCZE9bB+LyF750Xp3yzWfBmLWvF+6ReayaWDH52qHS9/d/n2b/4XuQQtGis7TVijNasGayFiXHyWoCgszwxsa95AbJQemrWw+qdzXcKwkkJDxs6PJqV8YyoWv0vze0GI2cqwUvibc0h3czsybW/wtCv9nKwsXyWcaeWTin/znZtt9z8P+1sS6jkFcx5WPOXsPMSzHp8/6W+4BKbL+8+disv/BcWiJfzj8rJ2sp4DCmvbtbnv8ELme9K/GskkHCwUGWB1kgle6ZDs3z6Z8Lw7MYpuXt2szNoam7AA9jna19JcWrR0FOVhtWCIdJORai8foXXztnU5QFJFRZq88I8IaQ+yJ75LUgFJcXTa3jiGRWvxb5jAMUspbfRzlgkt/JqveJcDgUui+HX0R8R85iofjcygYSsdLyWCp8pWWg1A8bHehkLcEKoanecv3Hr9iGxau2sykkSB7SXlsUwof5OJ2296nFcjlZabHZrc3boGFMufwhZu/LWSwUn5sEiQSJ9GvVgAwUr9rOppAgqQEhMuuh5LXDNXx0FgvF5yZBIkEiLZIakIHiVdvZFBIkNSBE0vo4XNaH2ft2FgvF5yZBIkEiLZIakIHiVdvZFBIkNSBEZj2UvHa4rBRnsVB8bhIkEiTSIqkBGShetZ1NIUFSA0IkrY/DZX2YvW9nsVB8bhIkEiTSIqkBGShetZ1NIUFSA0Jk1kPJa4fLSnEWC8XnJkEiQSItkhqQgeJV29kUEiQ1IETS+jhc1ofZ+3YWC8XnJkEiQSItkhqQgeJV29kUEiQ1IERmPZS8drisFGexUHxuEiQSJNIiqQEZKF61nU3x/wdO9h65vQ7ZAAAAAElFTkSuQmCC;" vertex="1" parent="WIyWlLk6GJQsqaUBKTNV-1">
          <mxGeometry x="553" y="60" width="274" height="421" as="geometry" />
        </mxCell>
      </root>
    </mxGraphModel>
  </diagram>
</mxfile>
